<svg width="1040" height="240" viewBox="0 0 1040 240" fill="none" xmlns="http://www.w3.org/2000/svg">
<rect width="1040" height="240" rx="12" fill="white"/>
<g clip-path="url(#clip0_763_8714)">
<g clip-path="url(#clip1_763_8714)">
<path d="M465.176 132.183H461.248C460.948 132.183 460.674 132.302 460.477 132.501C460.28 132.699 460.156 132.968 460.156 133.266V157.516C460.156 157.814 460.277 158.085 460.477 158.281C460.677 158.477 460.948 158.599 461.248 158.599H465.176C465.476 158.599 465.749 158.48 465.946 158.281C466.144 158.083 466.267 157.814 466.267 157.516V133.263C466.267 132.965 466.147 132.694 465.946 132.498C465.746 132.302 465.476 132.18 465.176 132.18V132.183Z" fill="black"/>
<path d="M455.687 152.534H445.108V133.263C445.108 132.965 444.987 132.694 444.79 132.498C444.593 132.302 444.319 132.18 444.016 132.18H440.092C439.791 132.18 439.518 132.299 439.321 132.498C439.124 132.697 439 132.965 439 133.263V157.513C439 157.811 439.121 158.083 439.321 158.278C439.521 158.474 439.791 158.597 440.092 158.597H455.687C455.987 158.597 456.261 158.477 456.458 158.278C456.655 158.08 456.779 157.811 456.779 157.513V153.615C456.779 153.317 456.658 153.045 456.461 152.849C456.264 152.654 455.99 152.531 455.69 152.531L455.687 152.534Z" fill="black"/>
<path d="M514.04 138.245C514.34 138.245 514.614 138.125 514.811 137.927C515.008 137.728 515.132 137.46 515.132 137.162V133.263C515.132 132.965 515.011 132.694 514.811 132.498C514.611 132.302 514.34 132.18 514.04 132.18H498.444C498.144 132.18 497.871 132.299 497.673 132.498C497.476 132.697 497.353 132.965 497.353 133.263V157.513C497.353 157.811 497.473 158.083 497.673 158.278C497.874 158.474 498.144 158.597 498.444 158.597H514.04C514.34 158.597 514.614 158.477 514.811 158.278C515.008 158.08 515.132 157.811 515.132 157.513V153.615C515.132 153.317 515.011 153.045 514.811 152.849C514.611 152.654 514.34 152.531 514.04 152.531H503.461V148.416H514.04C514.34 148.416 514.614 148.297 514.811 148.098C515.008 147.9 515.132 147.631 515.132 147.333V143.434C515.132 143.137 515.011 142.865 514.811 142.669C514.611 142.474 514.34 142.351 514.04 142.351H503.461V138.236H514.04V138.245Z" fill="black"/>
<path d="M492.116 132.183H488.188C487.888 132.183 487.615 132.302 487.418 132.501C487.22 132.699 487.097 132.968 487.097 133.266V147.298L476.82 132.714C476.744 132.603 476.655 132.516 476.558 132.443C476.294 132.244 475.964 132.183 475.611 132.183H471.498C471.198 132.183 470.924 132.302 470.727 132.501C470.53 132.699 470.406 132.968 470.406 133.266V157.516C470.406 157.814 470.527 158.085 470.727 158.281C470.927 158.477 471.198 158.599 471.498 158.599H475.426C475.726 158.599 475.999 158.48 476.196 158.284C476.394 158.088 476.517 157.817 476.517 157.519V142.865L487.229 158.068C487.267 158.123 487.312 158.173 487.356 158.22C487.541 158.436 487.847 158.602 488.109 158.602H492.113C492.413 158.602 492.687 158.483 492.884 158.284C493.081 158.085 493.205 157.817 493.205 157.519V133.263C493.205 132.965 493.084 132.694 492.884 132.498C492.684 132.302 492.413 132.18 492.113 132.18L492.116 132.183Z" fill="black"/>
<g clip-path="url(#clip2_763_8714)">
<path d="M597.511 168.813H528.157C527.394 168.813 526.703 168.506 526.2 168.011C525.697 167.516 525.382 166.821 525.382 166.058V124.755C525.382 123.994 525.693 123.305 526.194 122.806C526.695 122.307 527.39 122 528.157 122H597.511C598.274 122 598.964 122.305 599.465 122.798C599.965 123.291 600.287 123.99 600.287 124.755V166.058C600.287 166.819 599.975 167.508 599.475 168.007C598.974 168.506 598.278 168.813 597.511 168.813Z" fill="#08BF5B"/>
<path d="M552.389 140.417C552.389 144.514 549.068 147.811 544.786 147.811H541.528V153.863C541.528 154.063 541.445 154.245 541.313 154.376C541.181 154.507 540.998 154.589 540.797 154.589H537.294C537.093 154.589 536.909 154.507 536.777 154.376C536.645 154.245 536.562 154.063 536.562 153.863V133.749C536.562 133.55 536.645 133.368 536.777 133.237C536.909 133.106 537.093 133.023 537.294 133.023H544.786C549.07 133.023 552.389 136.32 552.389 140.417ZM547.422 140.417C547.422 138.846 546.304 137.645 544.784 137.645H541.526V143.19H544.784C546.306 143.19 547.422 141.989 547.422 140.417Z" fill="white"/>
<path d="M570.826 139.568V154.207C570.826 154.313 570.782 154.409 570.713 154.477C570.644 154.546 570.548 154.589 570.441 154.589H566.556C566.45 154.589 566.353 154.546 566.284 154.477C566.215 154.409 566.172 154.313 566.172 154.207V153.141C565.147 154.311 563.627 155.019 561.547 155.019C557.481 155.019 554.13 151.476 554.13 146.885C554.13 142.295 557.481 138.752 561.547 138.752C563.627 138.752 565.147 139.46 566.172 140.63V139.564C566.172 139.458 566.215 139.362 566.284 139.294C566.353 139.225 566.45 139.182 566.556 139.182H570.441C570.548 139.182 570.644 139.225 570.713 139.294C570.782 139.362 570.826 139.458 570.826 139.564V139.568ZM566.172 146.887C566.172 144.577 564.62 143.129 562.478 143.129C560.335 143.129 558.784 144.577 558.784 146.887C558.784 149.198 560.335 150.646 562.478 150.646C564.62 150.646 566.172 149.198 566.172 146.887Z" fill="white"/>
<path d="M586.319 139.588L582.747 148.521L579.053 139.582C579.03 139.523 578.996 139.468 578.957 139.421C578.836 139.275 578.655 139.187 578.46 139.187H574.498C574.389 139.187 574.295 139.23 574.226 139.298C574.121 139.402 574.08 139.562 574.143 139.713L580.307 154.628L578.062 160.243C578.003 160.394 578.044 160.55 578.147 160.654C578.216 160.723 578.31 160.766 578.419 160.766H582.383C582.625 160.766 582.844 160.631 582.952 160.421C582.962 160.404 582.97 160.384 582.978 160.365L591.239 139.709C591.3 139.558 591.257 139.4 591.154 139.298C591.085 139.23 590.991 139.187 590.882 139.187H586.918C586.723 139.187 586.542 139.275 586.422 139.421C586.38 139.47 586.347 139.527 586.323 139.59L586.319 139.588Z" fill="white"/>
</g>
</g>
</g>
<path d="M74.39 89H69.674C69.53 89 69.44 88.91 69.44 88.766V76.022C69.44 75.878 69.53 75.788 69.674 75.788H74.21C77.378 75.788 78.8 77.228 78.8 79.19C78.8 80.486 78.17 81.584 76.982 82.07C78.638 82.52 79.466 83.708 79.466 85.22C79.466 87.542 77.954 89 74.39 89ZM74.12 78.056H71.87V81.116H74.12C75.506 81.116 76.316 80.594 76.316 79.586C76.316 78.596 75.506 78.056 74.12 78.056ZM74.462 83.312H71.87V86.732H74.462C76.082 86.732 76.946 86.12 76.946 85.004C76.946 83.906 76.082 83.312 74.462 83.312ZM85.3798 89.18C82.7158 89.18 81.0238 87.2 81.0238 84.338C81.0238 81.476 82.7158 79.496 85.3798 79.496C86.6758 79.496 87.7558 80.036 88.4218 80.954L88.4758 79.91C88.4758 79.748 88.5838 79.676 88.7278 79.676H90.4198C90.5638 79.676 90.6538 79.766 90.6538 79.91V88.766C90.6538 88.91 90.5638 89 90.4198 89H88.7278C88.5838 89 88.4758 88.928 88.4758 88.766L88.4218 87.722C87.7558 88.64 86.6758 89.18 85.3798 89.18ZM85.9558 87.056C87.4498 87.056 88.4758 85.94 88.4758 84.338C88.4758 82.736 87.4498 81.62 85.9558 81.62C84.4618 81.62 83.4358 82.736 83.4358 84.338C83.4358 85.94 84.4618 87.056 85.9558 87.056ZM96.4431 89.18C94.4091 89.18 92.9871 88.316 92.3931 86.696C92.3391 86.552 92.4111 86.444 92.5551 86.408L94.1931 85.958C94.3191 85.922 94.4271 85.976 94.4811 86.102C94.9131 86.858 95.5611 87.11 96.3531 87.11C97.1451 87.11 97.7211 86.948 97.7211 86.426C97.7211 86.03 97.3251 85.814 96.3351 85.526L95.8851 85.4C93.6531 84.77 92.7891 83.672 92.7891 82.232C92.7891 80.648 94.2291 79.496 96.3351 79.496C98.1351 79.496 99.4131 80.252 99.9891 81.836C100.043 81.98 99.9891 82.088 99.8451 82.124L98.2071 82.646C98.0631 82.7 97.9731 82.646 97.9011 82.52C97.5771 81.944 97.0911 81.566 96.2991 81.566C95.6871 81.566 95.2011 81.746 95.2011 82.232C95.2011 82.664 95.6151 82.916 96.6411 83.168L97.0731 83.276C99.3591 83.852 100.133 84.824 100.133 86.372C100.133 88.082 98.5851 89.18 96.4431 89.18ZM103.072 78.02C102.298 78.02 101.704 77.498 101.704 76.724C101.704 75.95 102.298 75.428 103.072 75.428C103.846 75.428 104.44 75.95 104.44 76.724C104.44 77.498 103.846 78.02 103.072 78.02ZM104.008 89H102.136C101.992 89 101.902 88.91 101.902 88.766V79.91C101.902 79.766 101.992 79.676 102.136 79.676H104.008C104.152 79.676 104.242 79.766 104.242 79.91V88.766C104.242 88.91 104.152 89 104.008 89ZM110.931 89.18C107.979 89.18 106.143 87.2 106.143 84.338C106.143 81.476 107.997 79.496 110.913 79.496C113.001 79.496 114.459 80.36 115.143 82.196C115.197 82.34 115.125 82.466 114.981 82.502L113.433 82.952C113.307 82.988 113.199 82.934 113.127 82.808C112.713 82.016 112.029 81.62 111.057 81.62C109.365 81.62 108.555 82.862 108.555 84.338C108.555 85.814 109.365 87.056 111.057 87.056C112.029 87.056 112.749 86.642 113.145 85.814C113.217 85.688 113.325 85.634 113.451 85.67L115.161 86.084C115.305 86.12 115.359 86.228 115.305 86.372C114.567 88.298 112.983 89.18 110.931 89.18ZM123.456 89H121.494C121.35 89 121.26 88.91 121.26 88.766V76.022C121.26 75.878 121.35 75.788 121.494 75.788H123.456C123.6 75.788 123.69 75.878 123.69 76.022V88.766C123.69 88.91 123.6 89 123.456 89ZM131.195 89H126.803C126.659 89 126.569 88.91 126.569 88.766V76.022C126.569 75.878 126.659 75.788 126.803 75.788H131.195C135.587 75.788 137.873 78.236 137.873 82.394C137.873 86.534 135.587 89 131.195 89ZM130.925 78.074H128.999V86.714H130.925C133.859 86.714 135.353 85.166 135.353 82.394C135.353 79.622 133.859 78.074 130.925 78.074ZM149.706 84.248H144.324C144.18 84.248 144.09 84.158 144.09 84.014V82.268C144.09 82.124 144.18 82.034 144.324 82.034H149.706C149.85 82.034 149.94 82.124 149.94 82.268V84.014C149.94 84.158 149.85 84.248 149.706 84.248ZM155.314 72.296H161.02C161.164 72.296 161.254 72.386 161.254 72.53V74.006C161.254 74.114 161.218 74.204 161.11 74.294C160.03 75.068 159.616 75.986 159.616 77.552V88.766C159.616 88.91 159.526 89 159.382 89H157.456C157.312 89 157.222 88.91 157.222 88.766V77.588C157.222 76.022 157.528 75.212 158.428 74.276H155.314C155.17 74.276 155.08 74.186 155.08 74.042V72.53C155.08 72.386 155.17 72.296 155.314 72.296ZM166.227 78.56C169.287 78.56 171.231 80.648 171.231 83.924C171.231 87.164 169.323 89.216 166.299 89.216C163.473 89.216 161.673 87.416 161.673 84.608V83.33C161.673 83.186 161.763 83.096 161.907 83.096H166.335C166.479 83.096 166.569 83.186 166.569 83.33V84.842C166.569 84.986 166.479 85.076 166.335 85.076H164.049C164.175 86.3 164.985 87.092 166.209 87.092C167.775 87.092 168.765 85.832 168.765 83.888C168.765 81.926 167.721 80.684 166.047 80.684C165.057 80.684 164.301 81.134 163.923 81.89C163.851 82.016 163.761 82.052 163.617 82.016L161.925 81.53C161.763 81.476 161.727 81.368 161.781 81.224C162.483 79.55 164.139 78.56 166.227 78.56ZM176.781 89.18C174.477 89.18 173.037 87.65 173.037 85.256V82.862C173.037 80.234 174.837 78.56 177.699 78.56C180.543 78.56 182.361 80.234 182.361 82.862V88.766C182.361 88.91 182.271 89 182.127 89H180.201C180.057 89 179.967 88.91 179.967 88.766V83.15C179.967 81.584 179.157 80.72 177.699 80.72C176.241 80.72 175.431 81.584 175.431 83.15V85.04C175.431 86.336 176.025 87.056 177.087 87.056C177.321 87.056 177.519 87.02 177.753 86.912C177.897 86.84 178.005 86.858 178.059 87.002L178.689 88.406C178.743 88.532 178.725 88.658 178.617 88.73C178.185 89.018 177.537 89.18 176.781 89.18ZM181.222 77.48H174.22C174.076 77.48 173.986 77.39 173.986 77.246V75.842C173.986 75.698 174.076 75.608 174.22 75.608H180.034V74.222C180.034 74.078 180.124 73.988 180.268 73.988H181.942C182.086 73.988 182.176 74.078 182.176 74.222V76.526C182.176 77.12 181.816 77.48 181.222 77.48ZM187.265 89H185.339C185.195 89 185.105 88.91 185.105 88.766V79.01C185.105 78.866 185.195 78.776 185.339 78.776H187.265C187.409 78.776 187.499 78.866 187.499 79.01V88.766C187.499 88.91 187.409 89 187.265 89ZM192.053 89H190.127C189.983 89 189.893 88.91 189.893 88.766V79.01C189.893 78.866 189.983 78.776 190.127 78.776H192.053C192.197 78.776 192.287 78.866 192.287 79.01V88.766C192.287 88.91 192.197 89 192.053 89ZM199.355 89.216C196.619 89.216 194.873 87.56 194.873 84.968V79.01C194.873 78.848 194.963 78.776 195.107 78.776H197.033C197.177 78.776 197.267 78.848 197.267 79.01V84.608C197.267 86.174 198.005 87.056 199.355 87.056C200.705 87.056 201.443 86.174 201.443 84.608V79.01C201.443 78.848 201.515 78.776 201.677 78.776H203.603C203.765 78.776 203.837 78.848 203.837 79.01V84.968C203.837 87.56 202.091 89.216 199.355 89.216ZM210.798 89.216C208.062 89.216 206.316 87.56 206.316 84.968V79.01C206.316 78.848 206.406 78.776 206.55 78.776H208.476C208.62 78.776 208.71 78.848 208.71 79.01V84.608C208.71 86.174 209.448 87.056 210.798 87.056C212.148 87.056 212.886 86.174 212.886 84.608V79.01C212.886 78.848 212.958 78.776 213.12 78.776H215.046C215.208 78.776 215.28 78.848 215.28 79.01V84.968C215.28 87.56 213.534 89.216 210.798 89.216ZM221.864 78.668H227.012C227.156 78.668 227.246 78.758 227.246 78.902V80.414C227.246 80.558 227.156 80.648 227.012 80.648H225.23C225.878 81.098 226.202 81.8 226.202 82.772V88.766C226.202 88.91 226.112 89 225.968 89H224.042C223.898 89 223.808 88.91 223.808 88.766V84.788H222.332C220.766 84.788 219.884 85.13 219.884 86.03C219.884 86.696 220.37 87.056 221.162 87.056C221.414 87.056 221.612 87.02 221.846 86.912C221.99 86.84 222.098 86.858 222.152 87.002L222.782 88.406C222.836 88.532 222.818 88.658 222.71 88.73C222.278 89.018 221.63 89.18 220.82 89.18C218.786 89.18 217.49 88.118 217.49 86.264C217.49 84.104 219.236 82.844 222.368 82.844H223.808V82.574C223.808 81.422 223.016 80.756 221.774 80.756C220.82 80.756 220.136 81.134 219.722 81.872C219.65 81.998 219.56 82.034 219.416 81.998L217.724 81.476C217.562 81.422 217.508 81.314 217.562 81.17C218.264 79.568 219.83 78.668 221.864 78.668ZM225.975 90.296C226.119 90.296 226.209 90.386 226.209 90.53V93.698C226.209 93.842 226.119 93.932 225.975 93.932H224.247C224.103 93.932 224.013 93.842 224.013 93.698V92.168H222.969C222.825 92.168 222.735 92.078 222.735 91.934V90.53C222.735 90.386 222.825 90.296 222.969 90.296H225.975ZM225.692 77.48H223.946C223.802 77.48 223.712 77.39 223.712 77.246V74.114C223.712 73.97 223.802 73.88 223.946 73.88H225.692C225.836 73.88 225.926 73.97 225.926 74.114V77.246C225.926 77.39 225.836 77.48 225.692 77.48ZM234.325 89.216C233.011 89.216 231.877 88.64 231.175 87.596L231.121 88.766C231.121 88.928 231.013 89 230.869 89H229.123C228.979 89 228.889 88.91 228.889 88.766V79.01C228.889 78.866 228.979 78.776 229.123 78.776H231.049C231.193 78.776 231.283 78.866 231.283 79.01V84.05C231.283 85.94 232.327 87.056 233.587 87.056C234.739 87.056 235.387 86.084 235.387 84.518V79.01C235.387 78.866 235.477 78.776 235.621 78.776H237.547C237.691 78.776 237.781 78.866 237.781 79.01V85.382C237.781 87.722 236.449 89.216 234.325 89.216Z" fill="black"/>
<rect x="68.5" y="120.5" width="196" height="48" stroke="#777777"/>
<path d="M96.33 156.928C90.126 156.928 86.232 152.792 86.232 147.006C86.232 140.868 90.522 136.842 96.616 136.842C102.754 136.842 106.626 140.67 106.626 146.258C106.626 149.844 104.822 152.22 102.226 152.22C100.774 152.22 99.63 151.45 99.366 150.064C98.684 151.384 97.32 152.22 95.736 152.22C92.81 152.22 90.852 150.064 90.852 146.918C90.852 143.772 92.81 141.616 95.736 141.616C97.144 141.616 98.376 142.276 99.124 143.354L99.168 142.122C99.168 141.924 99.278 141.836 99.454 141.836H101.082C101.258 141.836 101.368 141.946 101.368 142.122V148.37C101.368 149.448 101.764 149.954 102.622 149.954C103.546 149.954 104.206 148.458 104.206 146.258C104.206 141.594 101.258 139.064 96.616 139.064C92.106 139.064 88.652 141.638 88.652 147.006C88.652 152.22 92.018 154.706 96.748 154.706C97.694 154.706 98.508 154.64 99.256 154.486C99.454 154.442 99.564 154.552 99.564 154.75V156.312C99.564 156.466 99.498 156.598 99.366 156.62C98.486 156.84 97.54 156.928 96.33 156.928ZM96.22 149.91C97.848 149.91 98.992 148.678 98.992 146.918C98.992 145.158 97.848 143.926 96.22 143.926C94.592 143.926 93.448 145.158 93.448 146.918C93.448 148.678 94.592 149.91 96.22 149.91ZM110.625 152H107.897C107.699 152 107.589 151.868 107.677 151.67L114.123 136.072C114.189 135.918 114.299 135.852 114.453 135.852H116.499C116.653 135.852 116.763 135.918 116.829 136.072L123.275 151.67C123.363 151.868 123.253 152 123.055 152H120.283C120.129 152 120.019 151.934 119.953 151.78L118.809 148.766H112.099L110.955 151.78C110.889 151.934 110.779 152 110.625 152ZM113.133 146.016H117.753L115.443 139.9L113.133 146.016ZM127.168 152H124.484C124.264 152 124.176 151.846 124.286 151.648L129.39 143.662L124.638 136.204C124.528 136.006 124.616 135.852 124.836 135.852H127.542C127.696 135.852 127.784 135.918 127.872 136.05L131.282 141.616L134.648 136.05C134.714 135.918 134.824 135.852 134.978 135.852H137.662C137.882 135.852 137.97 136.006 137.86 136.204L133.108 143.64L138.212 151.648C138.322 151.846 138.234 152 138.014 152H135.308C135.154 152 135.066 151.934 134.978 151.802L131.216 145.664L127.498 151.802C127.432 151.934 127.322 152 127.168 152ZM145.376 152.308C142.494 152.308 140.404 150.68 139.634 148.04C139.59 147.842 139.678 147.732 139.854 147.688L142.076 147.094C142.252 147.05 142.362 147.116 142.428 147.292C142.89 148.546 143.814 149.404 145.376 149.404C147.07 149.404 148.148 148.48 148.148 147.072C148.148 145.664 146.982 144.894 145.2 144.894H144.518C144.342 144.894 144.232 144.784 144.232 144.608V142.65C144.232 142.474 144.342 142.364 144.518 142.364H145.2C146.696 142.364 147.73 141.594 147.73 140.472C147.73 139.306 146.718 138.448 145.31 138.448C143.924 138.448 143.022 139.306 142.56 140.56C142.494 140.736 142.384 140.802 142.208 140.758L139.986 140.164C139.81 140.12 139.722 140.01 139.766 139.812C140.536 137.172 142.604 135.544 145.376 135.544C148.5 135.544 150.81 137.392 150.81 139.922C150.81 141.506 149.864 142.826 148.28 143.552C150.106 144.168 151.228 145.532 151.228 147.49C151.228 150.372 148.852 152.308 145.376 152.308ZM159.746 152H154.378C154.202 152 154.092 151.89 154.092 151.714V136.138C154.092 135.962 154.202 135.852 154.378 135.852H159.746C165.114 135.852 167.908 138.844 167.908 143.926C167.908 148.986 165.114 152 159.746 152ZM159.416 138.646H157.062V149.206H159.416C163.002 149.206 164.828 147.314 164.828 143.926C164.828 140.538 163.002 138.646 159.416 138.646ZM181.651 152H171.179C171.003 152 170.893 151.89 170.893 151.714V136.138C170.893 135.962 171.003 135.852 171.179 135.852H173.577C173.753 135.852 173.863 135.962 173.863 136.138V149.162H181.651C181.827 149.162 181.937 149.272 181.937 149.448V151.714C181.937 151.89 181.827 152 181.651 152ZM187.048 152H184.65C184.474 152 184.364 151.89 184.364 151.714V136.138C184.364 135.962 184.474 135.852 184.65 135.852H187.048C187.224 135.852 187.334 135.962 187.334 136.138V151.714C187.334 151.89 187.224 152 187.048 152ZM201.214 152H190.61C190.434 152 190.324 151.89 190.324 151.714V150.988C190.324 150.856 190.368 150.746 190.456 150.636L194.438 146.148C197.254 142.98 197.936 141.88 197.936 140.45C197.936 139.218 197.012 138.448 195.582 138.448C194.328 138.448 193.36 139.174 192.854 140.56C192.788 140.736 192.678 140.802 192.502 140.758L190.258 140.142C190.082 140.098 189.994 139.988 190.06 139.79C190.896 137.15 192.964 135.544 195.736 135.544C198.882 135.544 201.016 137.392 201.016 140.142C201.016 142.32 200.224 143.992 196.594 147.842L195.318 149.206H201.214C201.39 149.206 201.5 149.316 201.5 149.492V151.714C201.5 151.89 201.39 152 201.214 152ZM212.751 152H210.353C210.177 152 210.067 151.89 210.067 151.714V148.876H202.411C202.235 148.876 202.125 148.766 202.125 148.59V147.864C202.125 147.732 202.147 147.622 202.235 147.512L210.749 136.028C210.837 135.918 210.947 135.852 211.101 135.852H212.751C212.927 135.852 213.037 135.962 213.037 136.138V146.082H215.127C215.303 146.082 215.413 146.192 215.413 146.368V148.59C215.413 148.766 215.303 148.876 215.127 148.876H213.037V151.714C213.037 151.89 212.927 152 212.751 152ZM206.393 146.082H210.067V141L206.393 146.082ZM225.184 152.308C220.454 152.308 217.308 149.008 217.308 143.926C217.308 138.844 220.608 135.544 225.228 135.544C228.616 135.544 231.058 137.128 232.136 139.878C232.202 140.054 232.136 140.208 231.96 140.252L229.606 140.912C229.452 140.956 229.32 140.89 229.254 140.736C228.484 139.262 227.098 138.448 225.272 138.448C222.192 138.448 220.388 140.626 220.388 143.926C220.388 147.248 222.214 149.404 225.272 149.404C227.34 149.404 228.88 148.436 229.606 146.412C229.672 146.236 229.782 146.17 229.958 146.214L232.29 146.874C232.466 146.918 232.532 147.028 232.488 147.16C231.63 150.196 229.122 152.308 225.184 152.308ZM239.041 152H236.291C236.093 152 235.983 151.868 236.071 151.67L241.769 138.646H234.553C234.377 138.646 234.267 138.536 234.267 138.36V136.138C234.267 135.962 234.377 135.852 234.553 135.852H245.355C245.531 135.852 245.641 135.962 245.641 136.138V136.886C245.641 137.018 245.619 137.128 245.575 137.238L239.371 151.78C239.305 151.912 239.195 152 239.041 152Z" fill="#777777"/>
<path d="M778.636 89H776.674C776.53 89 776.44 88.91 776.44 88.766V76.022C776.44 75.878 776.53 75.788 776.674 75.788H780.67C784.144 75.788 785.908 77.48 785.908 80.396C785.908 83.312 784.144 85.004 780.67 85.004H778.87V88.766C778.87 88.91 778.78 89 778.636 89ZM780.58 78.038H778.87V82.754H780.58C782.38 82.754 783.388 82.016 783.388 80.342C783.388 78.776 782.38 78.038 780.58 78.038ZM790.037 89H788.165C788.021 89 787.931 88.91 787.931 88.766V79.91C787.931 79.766 788.021 79.676 788.165 79.676H789.857C790.001 79.676 790.109 79.748 790.109 79.91L790.163 81.08C790.793 80.072 791.891 79.55 793.007 79.55C793.277 79.55 793.457 79.568 793.637 79.604C793.781 79.64 793.835 79.73 793.835 79.856V81.71C793.835 81.872 793.745 81.926 793.583 81.908C793.349 81.89 793.079 81.836 792.719 81.836C791.459 81.836 790.271 82.7 790.271 84.176V88.766C790.271 88.91 790.181 89 790.037 89ZM799.42 89.18C796.486 89.18 794.704 87.164 794.704 84.338C794.704 81.512 796.486 79.496 799.42 79.496C802.282 79.496 803.92 81.62 803.83 84.824C803.812 84.986 803.722 85.058 803.578 85.058H797.188C797.404 86.336 798.196 87.11 799.438 87.11C800.392 87.11 801.058 86.75 801.49 86.048C801.562 85.922 801.67 85.904 801.796 85.94L803.398 86.498C803.542 86.552 803.596 86.66 803.524 86.804C802.696 88.442 801.148 89.18 799.42 89.18ZM799.402 81.566C798.304 81.566 797.512 82.196 797.224 83.312H801.328C801.112 82.214 800.41 81.566 799.402 81.566ZM807.668 89H805.796C805.652 89 805.562 88.91 805.562 88.766V79.91C805.562 79.766 805.652 79.676 805.796 79.676H807.488C807.632 79.676 807.74 79.748 807.74 79.91L807.794 81.026C808.46 80.018 809.594 79.496 810.746 79.496C812.15 79.496 813.176 80.108 813.68 81.206C814.364 80.072 815.588 79.496 816.866 79.496C818.9 79.496 820.142 80.792 820.142 82.934V88.766C820.142 88.91 820.052 89 819.908 89H818.036C817.892 89 817.802 88.91 817.802 88.766V83.888C817.802 82.34 817.226 81.62 816.146 81.62C815.048 81.62 814.022 82.466 814.022 84.248V88.766C814.022 88.91 813.932 89 813.788 89H811.916C811.772 89 811.682 88.91 811.682 88.766V83.888C811.682 82.34 811.106 81.62 810.026 81.62C808.928 81.62 807.902 82.466 807.902 84.248V88.766C807.902 88.91 807.812 89 807.668 89ZM823.695 78.02C822.921 78.02 822.327 77.498 822.327 76.724C822.327 75.95 822.921 75.428 823.695 75.428C824.469 75.428 825.063 75.95 825.063 76.724C825.063 77.498 824.469 78.02 823.695 78.02ZM824.631 89H822.759C822.615 89 822.525 88.91 822.525 88.766V79.91C822.525 79.766 822.615 79.676 822.759 79.676H824.631C824.775 79.676 824.865 79.766 824.865 79.91V88.766C824.865 88.91 824.775 89 824.631 89ZM830.636 89.18C828.476 89.18 827.234 87.884 827.234 85.742V79.91C827.234 79.766 827.324 79.676 827.468 79.676H829.34C829.484 79.676 829.574 79.766 829.574 79.91V84.788C829.574 86.336 830.132 87.056 831.356 87.056C832.49 87.056 833.57 86.21 833.57 84.428V79.91C833.57 79.766 833.66 79.676 833.804 79.676H835.676C835.82 79.676 835.91 79.766 835.91 79.91V88.766C835.91 88.91 835.82 89 835.676 89H833.984C833.84 89 833.732 88.928 833.732 88.766L833.678 87.704C832.994 88.694 831.824 89.18 830.636 89.18ZM840.469 89H838.597C838.453 89 838.363 88.91 838.363 88.766V79.91C838.363 79.766 838.453 79.676 838.597 79.676H840.289C840.433 79.676 840.541 79.748 840.541 79.91L840.595 81.026C841.261 80.018 842.395 79.496 843.547 79.496C844.951 79.496 845.977 80.108 846.481 81.206C847.165 80.072 848.389 79.496 849.667 79.496C851.701 79.496 852.943 80.792 852.943 82.934V88.766C852.943 88.91 852.853 89 852.709 89H850.837C850.693 89 850.603 88.91 850.603 88.766V83.888C850.603 82.34 850.027 81.62 848.947 81.62C847.849 81.62 846.823 82.466 846.823 84.248V88.766C846.823 88.91 846.733 89 846.589 89H844.717C844.573 89 844.483 88.91 844.483 88.766V83.888C844.483 82.34 843.907 81.62 842.827 81.62C841.729 81.62 840.703 82.466 840.703 84.248V88.766C840.703 88.91 840.613 89 840.469 89ZM861.693 89H859.731C859.587 89 859.497 88.91 859.497 88.766V76.022C859.497 75.878 859.587 75.788 859.731 75.788H861.693C861.837 75.788 861.927 75.878 861.927 76.022V88.766C861.927 88.91 861.837 89 861.693 89ZM869.431 89H865.039C864.895 89 864.805 88.91 864.805 88.766V76.022C864.805 75.878 864.895 75.788 865.039 75.788H869.431C873.823 75.788 876.109 78.236 876.109 82.394C876.109 86.534 873.823 89 869.431 89ZM869.161 78.074H867.235V86.714H869.161C872.095 86.714 873.589 85.166 873.589 82.394C873.589 79.622 872.095 78.074 869.161 78.074Z" fill="black"/>
<rect x="775" y="120" width="197" height="49" fill="#06C755"/>
<path d="M830.33 156.928C824.126 156.928 820.232 152.792 820.232 147.006C820.232 140.868 824.522 136.842 830.616 136.842C836.754 136.842 840.626 140.67 840.626 146.258C840.626 149.844 838.822 152.22 836.226 152.22C834.774 152.22 833.63 151.45 833.366 150.064C832.684 151.384 831.32 152.22 829.736 152.22C826.81 152.22 824.852 150.064 824.852 146.918C824.852 143.772 826.81 141.616 829.736 141.616C831.144 141.616 832.376 142.276 833.124 143.354L833.168 142.122C833.168 141.924 833.278 141.836 833.454 141.836H835.082C835.258 141.836 835.368 141.946 835.368 142.122V148.37C835.368 149.448 835.764 149.954 836.622 149.954C837.546 149.954 838.206 148.458 838.206 146.258C838.206 141.594 835.258 139.064 830.616 139.064C826.106 139.064 822.652 141.638 822.652 147.006C822.652 152.22 826.018 154.706 830.748 154.706C831.694 154.706 832.508 154.64 833.256 154.486C833.454 154.442 833.564 154.552 833.564 154.75V156.312C833.564 156.466 833.498 156.598 833.366 156.62C832.486 156.84 831.54 156.928 830.33 156.928ZM830.22 149.91C831.848 149.91 832.992 148.678 832.992 146.918C832.992 145.158 831.848 143.926 830.22 143.926C828.592 143.926 827.448 145.158 827.448 146.918C827.448 148.678 828.592 149.91 830.22 149.91ZM845.929 152H843.641C843.465 152 843.355 151.89 843.355 151.714V135.786C843.355 135.61 843.465 135.5 843.641 135.5H845.929C846.105 135.5 846.215 135.61 846.215 135.786V151.714C846.215 151.89 846.105 152 845.929 152ZM850.629 138.58C849.683 138.58 848.957 137.942 848.957 136.996C848.957 136.05 849.683 135.412 850.629 135.412C851.575 135.412 852.301 136.05 852.301 136.996C852.301 137.942 851.575 138.58 850.629 138.58ZM851.773 152H849.485C849.309 152 849.199 151.89 849.199 151.714V140.89C849.199 140.714 849.309 140.604 849.485 140.604H851.773C851.949 140.604 852.059 140.714 852.059 140.89V151.714C852.059 151.89 851.949 152 851.773 152ZM857.617 152H855.329C855.153 152 855.043 151.89 855.043 151.714V140.89C855.043 140.714 855.153 140.604 855.329 140.604H857.397C857.573 140.604 857.705 140.692 857.705 140.89L857.771 142.188C858.607 140.978 860.037 140.384 861.489 140.384C864.129 140.384 865.647 141.968 865.647 144.586V151.714C865.647 151.89 865.537 152 865.361 152H863.073C862.897 152 862.787 151.89 862.787 151.714V145.752C862.787 143.86 862.105 142.98 860.609 142.98C859.223 142.98 857.903 144.014 857.903 146.192V151.714C857.903 151.89 857.793 152 857.617 152ZM873.661 152.22C870.075 152.22 867.897 149.756 867.897 146.302C867.897 142.848 870.075 140.384 873.661 140.384C877.159 140.384 879.161 142.98 879.051 146.896C879.029 147.094 878.919 147.182 878.743 147.182H870.933C871.197 148.744 872.165 149.69 873.683 149.69C874.849 149.69 875.663 149.25 876.191 148.392C876.279 148.238 876.411 148.216 876.565 148.26L878.523 148.942C878.699 149.008 878.765 149.14 878.677 149.316C877.665 151.318 875.773 152.22 873.661 152.22ZM873.639 142.914C872.297 142.914 871.329 143.684 870.977 145.048H875.993C875.729 143.706 874.871 142.914 873.639 142.914ZM886.36 152.22C882.752 152.22 880.508 149.8 880.508 146.302C880.508 142.804 882.774 140.384 886.338 140.384C888.89 140.384 890.672 141.44 891.508 143.684C891.574 143.86 891.486 144.014 891.31 144.058L889.418 144.608C889.264 144.652 889.132 144.586 889.044 144.432C888.538 143.464 887.702 142.98 886.514 142.98C884.446 142.98 883.456 144.498 883.456 146.302C883.456 148.106 884.446 149.624 886.514 149.624C887.702 149.624 888.582 149.118 889.066 148.106C889.154 147.952 889.286 147.886 889.44 147.93L891.53 148.436C891.706 148.48 891.772 148.612 891.706 148.788C890.804 151.142 888.868 152.22 886.36 152.22ZM898.551 152.22C895.295 152.22 893.227 149.8 893.227 146.302C893.227 142.804 895.295 140.384 898.551 140.384C900.135 140.384 901.455 141.044 902.269 142.166L902.335 140.89C902.335 140.692 902.467 140.604 902.643 140.604H904.711C904.887 140.604 904.997 140.714 904.997 140.89V151.714C904.997 151.89 904.887 152 904.711 152H902.643C902.467 152 902.335 151.912 902.335 151.714L902.269 150.438C901.455 151.56 900.135 152.22 898.551 152.22ZM899.255 149.624C901.081 149.624 902.335 148.26 902.335 146.302C902.335 144.344 901.081 142.98 899.255 142.98C897.429 142.98 896.175 144.344 896.175 146.302C896.175 148.26 897.429 149.624 899.255 149.624ZM911.236 152H908.948C908.772 152 908.662 151.89 908.662 151.714V143.156H907.078C906.902 143.156 906.792 143.046 906.792 142.87V140.89C906.792 140.714 906.902 140.604 907.078 140.604H908.662V139.878C908.662 137.106 910.224 135.346 912.666 135.346C914.448 135.346 915.746 136.16 916.516 137.766C916.582 137.942 916.516 138.074 916.362 138.14L914.58 138.888C914.426 138.954 914.294 138.91 914.206 138.756C913.854 138.14 913.48 137.942 912.886 137.942C912.028 137.942 911.522 138.58 911.522 139.834V140.604H914.382C914.558 140.604 914.668 140.714 914.668 140.89V142.87C914.668 143.046 914.558 143.156 914.382 143.156H911.522V151.714C911.522 151.89 911.412 152 911.236 152ZM921.27 152.22C917.684 152.22 915.506 149.756 915.506 146.302C915.506 142.848 917.684 140.384 921.27 140.384C924.768 140.384 926.77 142.98 926.66 146.896C926.638 147.094 926.528 147.182 926.352 147.182H918.542C918.806 148.744 919.774 149.69 921.292 149.69C922.458 149.69 923.272 149.25 923.8 148.392C923.888 148.238 924.02 148.216 924.174 148.26L926.132 148.942C926.308 149.008 926.374 149.14 926.286 149.316C925.274 151.318 923.382 152.22 921.27 152.22ZM921.248 142.914C919.906 142.914 918.938 143.684 918.586 145.048H923.602C923.338 143.706 922.48 142.914 921.248 142.914Z" fill="white"/>
<line x1="751" y1="144.5" x2="625" y2="144.5" stroke="#06C755"/>
<line x1="415" y1="144.5" x2="289" y2="144.5" stroke="#06C755"/>
<defs>
<clipPath id="clip0_763_8714">
<rect width="162" height="47" fill="white" transform="translate(439 122)"/>
</clipPath>
<clipPath id="clip1_763_8714">
<rect width="161.225" height="46.7741" fill="white" transform="translate(439 122)"/>
</clipPath>
<clipPath id="clip2_763_8714">
<rect width="74.905" height="46.8133" fill="white" transform="translate(525.382 122)"/>
</clipPath>
</defs>
</svg>
