<svg width="262" height="20" viewBox="0 0 262 20" fill="none" xmlns="http://www.w3.org/2000/svg">
  <path
    d="M100.275 0.00201416C100.97 0.252514 101.683 0.462812 102.354 0.765312C102.961 1.03821 103.063 1.49912 102.723 2.06622C102.422 2.56962 102.098 3.06001 101.786 3.55621C101.545 3.93911 101.224 4.07852 100.782 3.91192C100.6 3.84342 100.407 3.79261 100.216 3.75591C98.598 3.43931 97.545 4.39642 97.693 6.11442C98.507 6.11442 99.328 6.11212 100.149 6.11442C100.875 6.11682 101.084 6.32831 101.089 7.06091C101.092 7.64821 101.097 8.23542 101.088 8.82152C101.078 9.39112 100.837 9.63802 100.263 9.65932C99.83 9.67582 99.398 9.66402 98.964 9.66402C98.554 9.66402 98.145 9.66402 97.675 9.66402C97.662 9.93932 97.643 10.165 97.643 10.3919C97.641 13.0919 97.643 15.7919 97.641 18.4919C97.641 19.4111 97.429 19.6167 96.491 19.6179C95.961 19.6179 95.429 19.6179 94.898 19.6179C93.763 19.6179 93.632 19.4903 93.631 18.3831C93.631 15.7221 93.613 13.0612 93.645 10.4013C93.652 9.81641 93.515 9.63212 92.901 9.64982C91.336 9.69472 91.31 9.63922 91.31 8.10072C91.31 7.70962 91.296 7.31731 91.315 6.92741C91.343 6.35551 91.593 6.12392 92.167 6.11562C92.618 6.10852 93.069 6.11442 93.579 6.11442C93.641 5.60042 93.683 5.10302 93.766 4.61262C94.179 2.21162 95.417 0.556114 97.945 0.0776138C97.977 0.0717138 98.001 0.0279128 98.03 0.00311279C98.778 0.00311279 99.526 0.00311279 100.274 0.00311279L100.275 0.00201416Z"
    fill="black" />
  <path
    d="M88.936 0.00119781C89.591 0.242198 90.268 0.439597 90.895 0.737297C91.595 1.0694 91.674 1.4522 91.274 2.1151C90.981 2.6007 90.667 3.0746 90.365 3.5543C90.123 3.9371 89.801 4.0754 89.36 3.9111C89.177 3.8426 88.987 3.7906 88.795 3.7528C87.194 3.4373 86.117 4.4121 86.256 6.1125C87.091 6.1125 87.933 6.1101 88.773 6.1125C89.431 6.116 89.656 6.3275 89.671 6.9845C89.684 7.5907 89.686 8.198 89.67 8.8042C89.652 9.4222 89.42 9.6502 88.801 9.6585C87.96 9.6715 87.119 9.6621 86.209 9.6621V10.3521C86.209 13.0923 86.209 15.8313 86.209 18.5714C86.209 19.3997 85.997 19.6124 85.17 19.616C84.501 19.6195 83.833 19.6219 83.164 19.616C82.454 19.6089 82.22 19.3714 82.218 18.6577C82.216 15.8596 82.218 13.0616 82.218 10.2623V9.6632C81.725 9.6632 81.278 9.6703 80.832 9.6609C80.162 9.6467 79.944 9.4328 79.934 8.7818C79.926 8.1756 79.925 7.5682 79.934 6.9621C79.945 6.3323 80.162 6.1219 80.784 6.1125C81.216 6.1054 81.649 6.103 82.081 6.0983C82.099 6.0983 82.116 6.0841 82.133 6.0759C82.256 5.3326 82.317 4.5717 82.514 3.8485C83.065 1.8362 84.31 0.502199 86.436 0.0980988C86.486 0.0885988 86.528 0.0343 86.574 0C87.361 0 88.149 0 88.936 0V0.00119781Z"
    fill="black" />
  <path
    d="M0.00119781 1.99782C0.281298 1.63152 0.6393 1.49562 1.1096 1.52042C1.7961 1.55822 2.4862 1.52992 3.175 1.52992C4.0731 1.52992 4.2503 1.70121 4.2503 2.58151C4.2503 6.61321 4.2503 10.6448 4.2503 14.6765C4.2503 14.8892 4.2503 15.1031 4.2503 15.402C4.4902 15.402 4.697 15.402 4.9037 15.402C7.0094 15.402 9.1138 15.3997 11.2195 15.402C12.0395 15.402 12.2794 15.6407 12.2806 16.4383C12.2829 17.2205 12.2888 18.0039 12.2782 18.7862C12.2711 19.351 12.0194 19.6109 11.4452 19.6121C7.9228 19.6192 4.4016 19.6263 0.8792 19.5956C0.5849 19.5932 0.2931 19.3049 0 19.1489C0.0012 13.4323 0.00119781 7.71442 0.00119781 1.99782Z"
    fill="#04C755" />
  <path
    d="M151.888 0.00201416C152.016 0.371814 152.254 0.740513 152.255 1.11031C152.279 6.88371 152.272 12.6582 152.272 18.4316C152.272 19.4608 152.111 19.6167 151.071 19.6179C150.324 19.6179 149.576 19.6274 148.829 19.6144C148.251 19.6049 147.997 19.3568 147.997 18.792C147.993 12.7835 147.99 6.77502 148.01 0.766518C148.01 0.511218 148.23 0.257213 148.347 0.00311279C149.528 0.00311279 150.709 0.00311279 151.89 0.00311279L151.888 0.00201416Z"
    fill="black" />
  <path
    d="M106.888 0.00201416C107.673 0.394214 108.361 0.863315 108.565 1.80511C108.835 3.04931 108.174 4.23571 106.963 4.61971C105.751 5.00371 104.463 4.40232 104.017 3.24312C103.553 2.03552 104.07 0.736915 105.233 0.187515C105.355 0.130715 105.472 0.0634142 105.59 0.00201416C106.024 0.00201416 106.456 0.00201416 106.89 0.00201416H106.888Z"
    fill="black" />
  <path
    d="M127.322 0.00201416C127.711 0.252514 128.149 0.452114 128.478 0.764114C129.217 1.46721 129.324 2.68191 128.793 3.57041C128.245 4.48741 127.099 4.93522 126.04 4.64452C125.046 4.37162 124.406 3.48651 124.366 2.43141C124.318 1.19891 125.018 0.505314 126.023 0.00201416C126.456 0.00201416 126.89 0.00201416 127.322 0.00201416Z"
    fill="black" />
  <path
    d="M25.5432 9.1227C25.5432 11.1255 25.5432 12.9417 25.5432 14.7578C25.5432 16.0694 25.5479 17.3798 25.5408 18.6914C25.5373 19.372 25.2962 19.6095 24.6215 19.6154C23.8346 19.6225 23.0476 19.6225 22.2607 19.6154C21.6108 19.6095 21.3532 19.372 21.3532 18.7434C21.3485 13.2832 21.3485 7.8241 21.3532 2.3639C21.3532 1.7518 21.5943 1.5368 22.2264 1.5332C22.9933 1.5285 23.7625 1.5639 24.5282 1.5202C25.0268 1.4919 25.3329 1.6939 25.6117 2.0697C27.9324 5.2021 30.2626 8.3275 32.5903 11.4552C32.7002 11.6029 32.8172 11.7447 33.0441 12.033V11.2331C33.0441 8.3558 33.0441 5.4798 33.0441 2.6026C33.0441 1.688 33.1989 1.532 34.0934 1.5308C34.7622 1.5308 35.431 1.5308 36.0997 1.5308C37.1088 1.5308 37.2365 1.6608 37.2376 2.6959C37.2376 6.4334 37.2376 10.1708 37.2376 13.9094C37.2376 15.4751 37.24 17.0407 37.2365 18.6063C37.2341 19.4004 37.0167 19.6131 36.2226 19.6166C35.5338 19.619 34.8425 19.5824 34.1572 19.6284C33.5935 19.6663 33.2473 19.4299 32.9295 18.9998C30.5875 15.8343 28.2314 12.6782 25.8776 9.52089C25.8102 9.43109 25.7334 9.3484 25.5444 9.1227H25.5432Z"
    fill="#04C755" />
  <path
    d="M78.069 10.5875C78.195 15.6141 73.699 19.7379 68.836 19.6387C63.8835 19.5382 59.7691 15.4983 59.7774 10.5461C59.7857 5.56328 63.9544 1.43228 68.962 1.44528C74.004 1.45828 78.069 5.53959 78.069 10.5875ZM64.1943 10.5225C64.2534 10.9656 64.277 11.4182 64.3786 11.8518C65.221 15.4404 69.405 16.778 72.077 14.3214C73.841 12.699 74.192 9.81349 72.856 7.76579C71.98 6.42469 70.759 5.58568 69.125 5.52898C66.398 5.43568 64.2415 7.66769 64.1943 10.5213V10.5225Z"
    fill="black" />
  <path
    d="M44.0679 12.6973V15.402H44.7166C46.8022 15.402 48.8877 15.4009 50.9745 15.402C51.8158 15.402 52.0734 15.6573 52.0757 16.4749C52.0781 17.1993 52.0805 17.9236 52.0757 18.6479C52.0698 19.3522 51.8193 19.6133 51.1281 19.6145C47.6648 19.618 44.2015 19.618 40.7381 19.6145C40.0741 19.6145 39.8118 19.3557 39.8118 18.6905C39.8082 13.2692 39.807 7.848 39.8118 2.4256C39.8118 1.7556 40.0599 1.5323 40.7535 1.5311C44.2168 1.5287 47.6801 1.5287 51.1434 1.5311C51.8205 1.5311 52.0686 1.7733 52.0757 2.4385C52.0828 3.1818 52.0793 3.9262 52.0769 4.6694C52.0734 5.467 51.8264 5.7187 51.0194 5.7199C48.9338 5.7246 46.8483 5.7211 44.7615 5.7211C44.5488 5.7211 44.3362 5.7211 44.0845 5.7211V8.4601C44.2924 8.4601 44.5004 8.4601 44.7084 8.4601C46.814 8.4601 48.9196 8.4589 51.0253 8.4601C51.8335 8.4601 52.0734 8.7035 52.0769 9.5093C52.0793 10.2337 52.0816 10.958 52.0769 11.6823C52.0722 12.4043 51.8099 12.6713 51.0796 12.6725C48.8948 12.6772 46.7112 12.6737 44.5264 12.6749C44.3917 12.6749 44.257 12.6867 44.0691 12.695L44.0679 12.6973Z"
    fill="#04C755" />
  <path
    d="M174.804 19.7241C174.313 19.7241 173.82 19.7076 173.33 19.7289C172.786 19.7513 172.454 19.5587 172.281 19.0093C172.012 18.155 171.661 17.3255 171.372 16.4771C171.265 16.1675 171.106 16.0718 170.777 16.0741C168.692 16.0895 166.607 16.0919 164.522 16.0741C164.139 16.0706 163.976 16.1982 163.862 16.5586C163.598 17.3952 163.27 18.2117 162.986 19.0424C162.826 19.5103 162.54 19.7395 162.026 19.7301C161.063 19.7112 160.099 19.7301 159.135 19.723C158.429 19.7171 158.327 19.5717 158.583 18.9147C160.758 13.3517 162.94 7.791 165.113 2.2268C165.328 1.6774 165.713 1.4399 166.288 1.4434C167.212 1.4493 168.137 1.4434 169.062 1.4458C169.858 1.4493 170.133 1.6348 170.43 2.3899C171.572 5.2966 172.71 8.2046 173.851 11.1125C174.862 13.6932 175.874 16.2738 176.885 18.8533C177.16 19.5564 177.052 19.7147 176.278 19.723C175.786 19.7277 175.295 19.723 174.802 19.723L174.804 19.7241ZM167.629 6.2289C166.866 8.3204 166.167 10.237 165.453 12.1949H169.799C169.08 10.2192 168.383 8.3027 167.629 6.2289Z"
    fill="black" />
  <path
    d="M140.992 18.0776C140.878 18.1071 140.853 18.1059 140.841 18.1177C138.515 20.3096 135.718 20.312 133.457 18.0728C131.854 16.4847 131.262 14.5091 131.408 12.2912C131.531 10.4254 132.169 8.77349 133.568 7.48909C134.943 6.22709 136.581 5.5513 138.433 6.0369C139.337 6.2732 140.129 6.93969 140.995 7.42529C140.995 7.31189 140.985 7.07079 140.997 6.83099C141.02 6.37009 141.255 6.09239 141.732 6.08769C142.677 6.07709 143.621 6.07709 144.567 6.08769C145.01 6.09239 145.253 6.34059 145.286 6.78009C145.299 6.95499 145.304 7.13229 145.304 7.30829C145.304 10.9891 145.305 14.6698 145.304 18.3505C145.304 19.4707 145.156 19.6184 144.06 19.6184C143.41 19.6184 142.761 19.6184 142.111 19.6184C141.187 19.6172 141.009 19.4423 140.994 18.5266C140.991 18.3942 140.994 18.2607 140.994 18.0799L140.992 18.0776ZM138.351 9.97519C136.834 9.97289 135.693 11.223 135.706 12.8749C135.719 14.4878 136.88 15.7474 138.354 15.745C139.833 15.7427 140.988 14.4866 140.992 12.8725C140.997 11.1982 139.885 9.97759 138.351 9.97519Z"
    fill="black" />
  <path
    d="M210.91 20.0008C206.954 19.9996 203.772 16.8542 203.773 12.9466C203.773 9.00232 206.953 5.87342 210.954 5.87702C214.891 5.88052 218.063 9.04252 218.059 12.9619C218.056 16.8683 214.872 20.0032 210.91 20.0008ZM207.968 12.9513C207.972 14.6209 209.068 15.9786 210.509 16.1133C211.837 16.2373 212.851 15.7493 213.501 14.5855C214.148 13.4251 214.006 11.8406 213.197 10.835C212.398 9.84362 211.109 9.47502 209.917 9.89442C208.739 10.3092 207.966 11.5215 207.968 12.9513Z"
    fill="black" />
  <path
    d="M240.079 8.03668C241.111 6.32338 242.651 5.74679 244.524 6.01969C246.408 6.29499 247.589 7.46009 248.123 9.23129C248.351 9.98759 248.459 10.8041 248.474 11.5957C248.519 13.9436 248.492 16.2927 248.49 18.6405C248.49 19.4641 248.23 19.7182 247.393 19.7229C246.724 19.7264 246.056 19.7276 245.387 19.7229C244.55 19.717 244.289 19.4653 244.287 18.637C244.282 16.4841 244.283 14.3312 244.286 12.1795C244.286 11.1916 243.898 10.4094 242.974 10.0077C241.57 9.39788 240.007 10.4531 239.999 11.9928C239.987 14.2237 239.996 16.4545 239.995 18.6854C239.995 19.4984 239.774 19.7182 238.942 19.7229C238.175 19.7276 237.407 19.7347 236.641 19.7193C235.998 19.7063 235.751 19.4523 235.751 18.8201C235.747 14.8865 235.747 10.9529 235.751 7.01929C235.751 6.43679 235.979 6.20759 236.57 6.19929C237.435 6.18749 238.301 6.18749 239.167 6.19929C239.761 6.20759 239.98 6.43449 239.995 7.01459C240.003 7.32779 240.006 7.63968 240.012 7.95278C240.012 7.96578 240.032 7.97879 240.079 8.03549V8.03668Z"
    fill="black" />
  <path
    d="M233.112 10.5812C233.011 12.1574 233.057 13.7597 232.779 15.3029C232.337 17.7465 230.372 19.4054 227.893 19.7233C226.158 19.9454 224.481 19.8119 222.929 18.9281C221.267 17.9816 220.305 16.5058 220.194 14.6565C220.041 12.1031 220.094 9.5366 220.082 6.976C220.08 6.3829 220.379 6.13001 220.969 6.12411C221.716 6.11581 222.464 6.11941 223.212 6.12411C223.929 6.12761 224.167 6.35921 224.168 7.06701C224.172 9.14081 224.162 11.2145 224.172 13.2882C224.179 14.8314 225.069 15.8724 226.418 15.9492C227.833 16.0296 228.892 15.0063 228.904 13.5045C228.919 11.4307 228.908 9.35701 228.909 7.28331C228.909 6.32141 229.112 6.12411 230.088 6.12411C230.757 6.12411 231.426 6.1194 232.094 6.1253C232.748 6.1312 233.012 6.3947 233.016 7.0564C233.023 8.2297 233.018 9.4043 233.018 10.5776C233.05 10.58 233.081 10.5812 233.113 10.5835L233.112 10.5812Z"
    fill="black" />
  <path
    d="M252.669 9.664C252.082 9.664 251.556 9.6723 251.03 9.6616C250.384 9.6498 250.141 9.41349 250.128 8.77189C250.115 8.18459 250.112 7.5973 250.129 7.0101C250.147 6.4086 250.403 6.1593 251.002 6.1475C251.549 6.1357 252.097 6.1451 252.721 6.1451C252.721 5.3109 252.718 4.53339 252.721 3.75589C252.725 2.97009 252.948 2.7468 253.735 2.7397C254.424 2.7338 255.113 2.7315 255.802 2.7397C256.512 2.748 256.76 2.9973 256.764 3.6874C256.767 4.485 256.764 5.28259 256.764 6.14399C257.623 6.14399 258.424 6.14039 259.224 6.14399C259.993 6.14869 260.258 6.4016 260.272 7.1554C260.282 7.6836 260.29 8.21299 260.268 8.74109C260.242 9.40169 259.975 9.6534 259.315 9.6604C258.514 9.6687 257.713 9.6628 256.895 9.6628C256.895 11.4742 256.83 13.2147 256.92 14.947C256.972 15.9443 257.995 16.3708 258.98 15.9407C259.57 15.6831 260.027 15.8253 260.35 16.3673C260.62 16.821 260.883 17.2795 261.162 17.7285C261.413 18.135 261.354 18.4646 260.957 18.7352C259.375 19.8129 257.651 20.1626 255.799 19.6404C254.083 19.1559 252.894 17.6482 252.775 15.7079C252.666 13.9532 252.697 12.1903 252.667 10.4309C252.663 10.2004 252.667 9.97 252.667 9.664H252.669Z"
    fill="black" />
  <path
    d="M117.574 5.93549C119.182 5.93909 120.637 6.39638 121.937 7.33218C122.57 7.78828 122.62 8.15228 122.148 8.75018C121.821 9.16608 121.488 9.57849 121.155 9.98849C120.685 10.5639 120.446 10.6242 119.798 10.2473C118.866 9.70488 117.869 9.56899 116.843 9.81599C115.164 10.2201 114.214 11.9015 114.584 13.7177C114.924 15.3885 116.529 16.4921 118.244 16.1671C118.83 16.0561 119.399 15.8032 119.947 15.5539C120.566 15.2715 120.866 15.3105 121.249 15.8635C121.584 16.3467 121.916 16.8312 122.237 17.3239C122.571 17.8379 122.53 18.1877 122.037 18.5339C118.921 20.7211 114.767 20.4576 112.22 17.5154C108.634 13.3714 110.834 7.15619 116.226 6.06789C116.666 5.97929 117.124 5.97808 117.573 5.93668L117.574 5.93549Z"
    fill="black" />
  <path
    d="M197.791 5.9375C199.375 5.947 200.816 6.383 202.103 7.3023C202.787 7.7915 202.831 8.1388 202.31 8.8029C201.984 9.2188 201.651 9.63 201.317 10.0424C200.916 10.5399 200.62 10.612 200.048 10.2717C199.102 9.7092 198.087 9.5651 197.04 9.8191C195.384 10.222 194.431 11.8928 194.789 13.67C195.133 15.3727 196.687 16.4799 198.406 16.1715C199.011 16.0628 199.597 15.7981 200.165 15.5452C200.782 15.2711 201.08 15.3148 201.464 15.8749C201.797 16.3593 202.107 16.8592 202.453 17.3342C202.791 17.7962 202.707 18.2038 202.274 18.5016C200.075 20.0164 197.687 20.4548 195.18 19.4445C192.662 18.4295 191.139 16.5437 190.742 13.8319C190.23 10.3437 192.651 6.7339 196.5 6.0545C196.923 5.98 197.359 5.9753 197.79 5.9375H197.791Z"
    fill="black" />
  <path
    d="M177.639 12.8955C177.64 8.8804 181.018 5.7408 185.145 5.9665C186.594 6.0457 187.917 6.47109 189.084 7.33719C189.716 7.80629 189.754 8.1962 189.258 8.8107C188.949 9.1912 188.644 9.57399 188.335 9.95449C187.834 10.5701 187.645 10.5465 186.928 10.2641C186.251 9.9982 185.512 9.7595 184.795 9.7441C182.829 9.7028 181.486 11.3074 181.69 13.3233C181.882 15.241 183.52 16.5172 185.406 16.1662C185.955 16.0646 186.496 15.8495 187.003 15.6073C187.757 15.2469 187.993 15.2741 188.473 15.9689C188.763 16.3872 189.045 16.8102 189.325 17.2356C189.736 17.8571 189.675 18.1809 189.073 18.6145C185.759 21.0014 181.046 20.1542 178.784 16.7641C178.015 15.6109 177.596 14.3524 177.639 12.8955Z"
    fill="black" />
  <path
    d="M18.7689 10.5729C18.7689 13.2339 18.7689 15.8949 18.7689 18.5559C18.7689 19.3961 18.5432 19.6158 17.6842 19.617C16.9362 19.6182 16.1894 19.6241 15.4415 19.6147C14.8223 19.6076 14.5446 19.337 14.5446 18.7154C14.5399 13.2765 14.5399 7.83748 14.5446 2.39848C14.5446 1.77228 14.8093 1.53599 15.4568 1.53239C16.2438 1.52769 17.0307 1.52889 17.8177 1.53239C18.5396 1.53479 18.7677 1.75689 18.7689 2.47299C18.7724 5.17299 18.7701 7.87298 18.7701 10.5729H18.7689Z"
    fill="#04C755" />
  <path
    d="M108.293 12.9024C108.293 14.8012 108.294 16.7001 108.293 18.5989C108.293 19.3717 108.051 19.6116 107.278 19.6163C106.589 19.6198 105.901 19.6187 105.212 19.6163C104.338 19.6127 104.146 19.4261 104.145 18.5339C104.14 15.6177 104.142 12.7003 104.142 9.7841C104.142 8.8636 104.132 7.9443 104.147 7.0238C104.159 6.322 104.379 6.1163 105.069 6.114C105.837 6.1104 106.604 6.1104 107.372 6.114C108.046 6.1175 108.291 6.3539 108.292 7.0297C108.297 8.9877 108.294 10.9444 108.294 12.9024H108.293Z"
    fill="black" />
  <path
    d="M124.617 12.8031C124.617 10.9633 124.617 9.1235 124.617 7.2838C124.617 6.2699 124.782 6.1104 125.82 6.1104C126.489 6.1104 127.158 6.1081 127.828 6.1104C128.56 6.1128 128.766 6.3113 128.767 7.0593C128.772 9.5052 128.77 11.9523 128.77 14.3983C128.77 15.8079 128.774 17.2164 128.767 18.6261C128.764 19.3906 128.543 19.6092 127.788 19.6139C127.06 19.6186 126.332 19.6198 125.604 19.6139C124.882 19.608 124.621 19.348 124.62 18.6154C124.615 16.6776 124.619 14.7409 124.619 12.8031H124.617Z"
    fill="black" />
</svg>