<svg width="36" height="41" viewBox="0 0 36 41" fill="none" xmlns="http://www.w3.org/2000/svg">
<path d="M17.708 0C9.833 0 3.416 1.458 1.083 2.125C0.416 2.542 0 3.167 0 3.833V22.791C0 29.624 8.958 36.249 17.083 40.291C17.291 40.291 17.5 40.499 17.708 40.499C17.916 40.499 18.125 40.499 18.333 40.291C26.666 36.249 35.416 29.624 35.416 22.791V3.833C35.416 3.166 34.999 2.541 34.333 2.333C32 1.708 25.583 0 17.708 0ZM17.708 8.959L20.25 14.709L26.042 15.334L21.959 19.626L22.834 25.584L17.709 23.042L12.584 25.792L13.459 19.834L9.376 15.542L15.168 14.917L17.71 8.959H17.708Z" fill="#33C659"/>
</svg>
